# xmcd
#
# Track frame offsets:
#	150
#	13725
#	31940
#	53735
#	64752
#	83597
#	101697
#	122915
#	135070
#	154175
#	172990
#	190942
#	203667
#
# Disc length: 2752 seconds
#
# Revision: 0
# Processed by: cddbd v1.4PL0 Copyright (c) Steve Scherf et al.
# Submitted via: EasyCDDAExtractor 4.6.0.1
#
DISCID=9e0abe0d
DTITLE=Jussara Silveira - Canções de Caymmi
DYEAR=2000
DGENRE=MPB
TTITLE0=O Vento
TTITLE1=Lá Vem a Baiana
TTITLE2=Nem Eu
TTITLE3=O Anjo da Noite
TTITLE4=Você Diz Que Amar É Crime - Vou Ver Juliana
TTITLE5=Maracangalha
TTITLE6=Yayá Não Sabe - Você Não Sabe Amar
TTITLE7=Horas
TTITLE8=Milagre - História Pro Sinhozinho
TTITLE9=Canto de Naná - Quem Vem Pra Beira do Mar
TTITLE10=Saudade de Itapoã
TTITLE11=Adalgiza
TTITLE12=O Vento (vinheta)
EXTD=
EXTT0=
EXTT1=
EXTT2=
EXTT3=
EXTT4=
EXTT5=
EXTT6=
EXTT7=
EXTT8=
EXTT9=
EXTT10=
EXTT11=
EXTT12=
PLAYORDER=
